<svg width="850" height="620" viewBox="0 0 850 620" fill="none" xmlns="http://www.w3.org/2000/svg">
<path d="M679.744 191.946C679.744 191.946 576.964 86.6658 443.394 78.5358C309.824 70.4058 231.934 156.696 195.024 208.156C158.114 259.616 66.0239 345.356 76.8839 423.866C87.7439 502.376 194.214 561.946 346.734 535.776C499.254 509.606 543.474 499.676 612.964 519.536C682.454 539.396 772.704 509.606 774.504 396.796C776.304 283.986 679.744 191.946 679.744 191.946Z" fill="#2377B2"/>
<path opacity="0.7" d="M679.744 191.946C679.744 191.946 576.964 86.6658 443.394 78.5358C309.824 70.4058 231.934 156.696 195.024 208.156C158.114 259.616 66.0239 345.356 76.8839 423.866C87.7439 502.376 194.214 561.946 346.734 535.776C499.254 509.606 543.474 499.676 612.964 519.536C682.454 539.396 772.704 509.606 774.504 396.796C776.304 283.986 679.744 191.946 679.744 191.946Z" fill="white"/>
<path d="M721.364 495.236H769.374" stroke="#263238" stroke-linecap="round" stroke-linejoin="round"/>
<path d="M113.015 495.236H710.355" stroke="#263238" stroke-linecap="round" stroke-linejoin="round"/>
<path d="M90.1943 495.236H104.364" stroke="#263238" stroke-linecap="round" stroke-linejoin="round"/>
<path d="M701.124 380.426C702.768 380.824 704.503 380.554 705.949 379.675C707.394 378.795 708.432 377.379 708.834 375.736L712.914 358.946C713.312 357.302 713.042 355.567 712.163 354.121C711.284 352.676 709.867 351.638 708.224 351.236C706.581 350.838 704.848 351.108 703.404 351.988C701.96 352.867 700.924 354.284 700.524 355.926L696.434 372.696C696.233 373.511 696.194 374.359 696.321 375.189C696.448 376.02 696.738 376.817 697.173 377.535C697.609 378.253 698.183 378.878 698.861 379.374C699.539 379.871 700.308 380.228 701.124 380.426Z" fill="white" stroke="#263238" stroke-linecap="round" stroke-linejoin="round"/>
<path d="M707.624 400.036C708.176 400.189 708.756 400.215 709.319 400.112C709.883 400.008 710.416 399.779 710.878 399.44C711.34 399.101 711.719 398.662 711.987 398.156C712.255 397.649 712.404 397.089 712.424 396.516L714.114 375.426C714.186 374.158 713.823 372.904 713.085 371.871C712.346 370.838 711.277 370.088 710.054 369.746C709.501 369.593 708.921 369.567 708.357 369.671C707.792 369.775 707.259 370.005 706.797 370.345C706.335 370.685 705.956 371.125 705.688 371.633C705.421 372.141 705.273 372.703 705.254 373.276L703.554 394.356C703.481 395.625 703.845 396.882 704.585 397.915C705.326 398.949 706.399 399.697 707.624 400.036Z" fill="white" stroke="#263238" stroke-linecap="round" stroke-linejoin="round"/>
<path d="M662.544 376.716L683.854 372.286C691.351 372.135 698.837 372.955 706.124 374.726L720.444 378.206C721.196 378.389 721.976 378.423 722.741 378.305C723.506 378.186 724.24 377.918 724.901 377.516C725.562 377.114 726.138 376.586 726.595 375.961C727.052 375.336 727.381 374.628 727.564 373.876L730.564 361.536C730.932 360.016 730.681 358.413 729.867 357.078C729.053 355.743 727.743 354.785 726.224 354.416L714.624 351.596C705.847 349.463 697.458 345.967 689.764 341.236L674.624 326.946L662.544 376.716Z" fill="white" stroke="#263238" stroke-linecap="round" stroke-linejoin="round"/>
<path d="M706.624 349.216C709.264 350.136 711.934 350.936 714.624 351.596L726.204 354.416C727.723 354.785 729.033 355.743 729.847 357.078C730.661 358.413 730.911 360.016 730.544 361.536L727.544 373.876C727.361 374.628 727.031 375.336 726.575 375.961C726.118 376.586 725.542 377.114 724.881 377.516C724.22 377.918 723.486 378.186 722.721 378.305C721.956 378.423 721.175 378.389 720.424 378.206L706.104 374.726C704.317 374.286 702.51 373.906 700.684 373.586L706.624 349.216Z" fill="#263238" stroke="#263238" stroke-linecap="round" stroke-linejoin="round"/>
<path d="M659.706 382.821L660.59 383.036C663.128 383.654 665.686 382.097 666.304 379.559L678.782 328.295C679.4 325.757 677.843 323.199 675.305 322.581L674.42 322.366C671.882 321.748 669.324 323.305 668.706 325.843L656.228 377.106C655.611 379.644 657.167 382.203 659.706 382.821Z" fill="#2377B2" stroke="#263238" stroke-linecap="round" stroke-linejoin="round"/>
<path d="M651.754 331.096L656.754 338.986" stroke="#263238" stroke-width="2" stroke-linecap="round" stroke-linejoin="round"/>
<path d="M643.704 364.186L651.764 359.476" stroke="#263238" stroke-width="2" stroke-linecap="round" stroke-linejoin="round"/>
<path d="M652.504 349.316L642.714 346.936" stroke="#263238" stroke-width="2" stroke-linecap="round" stroke-linejoin="round"/>
<path d="M703.623 391.946L700.193 394.866C699.792 395.215 699.509 395.679 699.383 396.196C699.303 396.52 699.287 396.856 699.337 397.186C699.387 397.516 699.502 397.832 699.675 398.118C699.848 398.403 700.075 398.651 700.344 398.848C700.614 399.046 700.919 399.187 701.243 399.266L712.073 401.906L712.753 392.006L703.623 391.946Z" fill="#263238" stroke="#263238" stroke-linecap="round" stroke-linejoin="round"/>
<path d="M721.154 362.196C721.225 361.911 721.379 361.653 721.596 361.455C721.814 361.257 722.085 361.128 722.376 361.084C722.666 361.039 722.964 361.082 723.23 361.207C723.497 361.331 723.72 361.532 723.873 361.783C724.026 362.034 724.101 362.325 724.088 362.619C724.076 362.913 723.977 363.196 723.804 363.434C723.631 363.671 723.391 363.853 723.116 363.954C722.84 364.056 722.54 364.074 722.254 364.006C722.062 363.962 721.88 363.879 721.72 363.763C721.56 363.648 721.425 363.501 721.323 363.333C721.22 363.164 721.152 362.977 721.123 362.781C721.094 362.586 721.105 362.387 721.154 362.196Z" fill="#2377B2"/>
<path d="M657.523 426.456V413.946H661.193C661.829 413.921 662.46 414.062 663.023 414.356C663.478 414.641 663.829 415.066 664.023 415.566C664.258 416.178 664.37 416.831 664.353 417.486C664.385 418.176 664.244 418.864 663.943 419.486C663.685 419.966 663.273 420.346 662.773 420.566C662.218 420.806 661.618 420.922 661.013 420.906H659.773V426.456H657.523ZM659.803 419.306H660.673C661.016 419.329 661.36 419.267 661.673 419.126C661.789 419.07 661.891 418.99 661.974 418.892C662.056 418.794 662.118 418.679 662.153 418.556C662.253 418.215 662.296 417.861 662.283 417.506C662.293 417.137 662.259 416.767 662.183 416.406C662.16 416.277 662.109 416.154 662.035 416.045C661.961 415.937 661.865 415.845 661.753 415.776C661.441 415.629 661.098 415.56 660.753 415.576H659.883L659.803 419.306Z" fill="#263238"/>
<path d="M665.624 426.456V413.946H668.624C669.349 413.928 670.072 414.029 670.764 414.246C671.308 414.414 671.775 414.768 672.084 415.246C672.425 415.855 672.585 416.549 672.544 417.246C672.547 417.7 672.5 418.152 672.404 418.596C672.32 418.959 672.16 419.3 671.934 419.596C671.692 419.892 671.374 420.117 671.014 420.246L672.754 426.396H670.424L668.914 420.676H667.914V426.396L665.624 426.456ZM667.914 419.306H668.614C668.977 419.324 669.34 419.259 669.674 419.116C669.932 418.988 670.133 418.766 670.234 418.496C670.362 418.147 670.42 417.777 670.404 417.406C670.438 416.912 670.319 416.42 670.064 415.996C669.895 415.822 669.687 415.689 669.459 415.608C669.23 415.526 668.985 415.498 668.744 415.526H667.914V419.306Z" fill="#263238"/>
<path d="M677.564 426.626C676.828 426.664 676.097 426.494 675.454 426.136C674.925 425.806 674.527 425.305 674.324 424.716C674.086 424.011 673.971 423.27 673.984 422.526V417.856C673.97 417.122 674.085 416.39 674.324 415.696C674.531 415.12 674.93 414.633 675.454 414.316C676.116 414 676.84 413.836 677.574 413.836C678.307 413.836 679.032 414 679.694 414.316C680.215 414.635 680.613 415.122 680.824 415.696C681.072 416.388 681.19 417.12 681.174 417.856V422.546C681.188 423.281 681.069 424.013 680.824 424.706C680.614 425.291 680.217 425.791 679.694 426.126C679.044 426.487 678.306 426.66 677.564 426.626ZM677.564 424.946C677.865 424.972 678.166 424.883 678.404 424.696C678.592 424.517 678.719 424.282 678.764 424.026C678.826 423.716 678.856 423.401 678.854 423.086V417.336C678.857 417.02 678.827 416.705 678.764 416.396C678.718 416.143 678.592 415.911 678.404 415.736C678.155 415.58 677.867 415.497 677.574 415.497C677.28 415.497 676.992 415.58 676.744 415.736C676.552 415.91 676.422 416.142 676.374 416.396C676.311 416.705 676.28 417.02 676.284 417.336V423.086C676.281 423.401 676.312 423.716 676.374 424.026C676.41 424.285 676.538 424.522 676.734 424.696C676.968 424.881 677.265 424.971 677.564 424.946Z" fill="#263238"/>
<path d="M682.813 426.456L683.033 413.976H685.393L687.163 422.616L689.013 413.976H691.293L691.523 426.456H689.833L689.643 417.776L687.873 426.456H686.503L684.693 417.746L684.533 426.456H682.813Z" fill="#263238"/>
<path d="M696.764 426.626C696.028 426.664 695.297 426.494 694.654 426.136C694.128 425.805 693.733 425.304 693.534 424.716C693.292 424.012 693.177 423.27 693.194 422.526V417.856C693.174 417.121 693.289 416.389 693.534 415.696C693.737 415.121 694.133 414.633 694.654 414.316C695.3 413.965 696.03 413.799 696.764 413.836C697.507 413.797 698.248 413.963 698.904 414.316C699.422 414.636 699.817 415.123 700.024 415.696C700.272 416.388 700.39 417.121 700.374 417.856V422.546C700.388 423.281 700.269 424.013 700.024 424.706C699.818 425.291 699.424 425.79 698.904 426.126C698.251 426.489 697.51 426.662 696.764 426.626ZM696.764 424.946C697.065 424.973 697.366 424.883 697.604 424.696C697.792 424.517 697.919 424.282 697.964 424.026C698.034 423.718 698.068 423.402 698.064 423.086V417.336C698.069 417.02 698.035 416.704 697.964 416.396C697.918 416.143 697.792 415.911 697.604 415.736C697.362 415.557 697.063 415.471 696.764 415.496C696.473 415.474 696.185 415.56 695.954 415.736C695.759 415.907 695.628 416.14 695.584 416.396C695.512 416.704 695.478 417.02 695.484 417.336V423.086C695.481 423.402 695.512 423.717 695.574 424.026C695.615 424.283 695.742 424.519 695.934 424.696C696.169 424.881 696.465 424.97 696.764 424.946Z" fill="#263238"/>
<path d="M703.244 426.456V415.656H701.244V413.946H707.464V415.626H705.464V426.426L703.244 426.456Z" fill="#263238"/>
<path d="M708.684 426.456V413.946H710.934V426.426L708.684 426.456Z" fill="#263238"/>
<path d="M716.244 426.626C715.509 426.66 714.779 426.49 714.134 426.136C713.609 425.805 713.213 425.304 713.014 424.716C712.772 424.012 712.657 423.27 712.674 422.526V417.856C712.654 417.121 712.769 416.389 713.014 415.696C713.217 415.121 713.613 414.633 714.134 414.316C714.798 414 715.524 413.835 716.259 413.835C716.994 413.835 717.72 414 718.384 414.316C718.902 414.636 719.297 415.123 719.504 415.696C719.752 416.388 719.871 417.12 719.854 417.856V422.546C719.868 423.281 719.75 424.013 719.504 424.706C719.299 425.29 718.905 425.79 718.384 426.126C717.731 426.489 716.99 426.662 716.244 426.626ZM716.244 424.946C716.546 424.972 716.846 424.883 717.084 424.696C717.272 424.515 717.401 424.281 717.454 424.026C717.516 423.716 717.546 423.401 717.544 423.086V417.336C717.547 417.02 717.517 416.705 717.454 416.396C717.401 416.143 717.272 415.913 717.084 415.736C716.842 415.557 716.544 415.471 716.244 415.496C715.954 415.474 715.666 415.559 715.434 415.736C715.239 415.907 715.109 416.14 715.064 416.396C714.992 416.704 714.959 417.02 714.964 417.336V423.086C714.962 423.401 714.992 423.716 715.054 424.026C715.095 424.283 715.222 424.519 715.414 424.696C715.649 424.881 715.946 424.97 716.244 424.946Z" fill="#263238"/>
<path d="M721.534 426.456V413.946H723.124L726.124 421.066V413.946H728.004V426.426H726.524L723.524 418.966V426.426L721.534 426.456Z" fill="#263238"/>
<path d="M719.285 248.046L714.475 244.366L708.715 239.956L692.565 227.596V227.586L692.545 227.576L692.425 227.486L674.855 240.206L668.815 244.566L663.885 248.146L675.245 188.566L680.655 160.206L700.635 160.626L702.125 160.656L703.285 160.676L708.055 186.706L719.285 248.046Z" fill="#2377B2" stroke="#263238" stroke-linecap="round" stroke-linejoin="round"/>
<path d="M708.055 186.706C707.331 186.466 706.552 186.441 705.815 186.636C704.815 187.176 704.555 189.536 703.455 189.956C702.355 190.376 700.615 188.796 699.455 189.106C698.295 189.416 697.615 191.676 696.455 191.866C695.295 192.056 693.915 190.126 692.735 190.196C691.555 190.266 690.405 192.326 689.225 192.266C688.045 192.206 687.075 190.046 685.925 189.866C684.775 189.686 683.185 191.466 682.065 191.176C680.945 190.886 680.425 188.556 679.335 188.176C678.245 187.796 676.335 189.176 675.335 188.636H675.265L680.625 160.206L700.625 160.626H702.115H703.275L708.055 186.706Z" fill="#263238" stroke="#263238" stroke-linecap="round" stroke-linejoin="round"/>
<path d="M658.365 149.676C658.425 148.486 656.495 147.116 656.675 145.966C656.855 144.816 659.105 144.066 659.395 142.966C659.685 141.866 658.095 140.076 658.505 138.966C658.915 137.856 661.285 137.626 661.805 136.576C662.325 135.526 661.135 133.486 661.805 132.506C662.475 131.526 664.805 131.766 665.525 130.856C666.245 129.946 665.525 127.696 666.335 126.856C667.145 126.016 669.415 126.756 670.335 126.006C671.255 125.256 670.975 122.916 671.955 122.266C672.935 121.616 674.955 122.806 676.025 122.266C677.095 121.726 677.285 119.366 678.385 118.936C679.485 118.506 681.235 120.096 682.385 119.786C683.535 119.476 684.215 117.226 685.385 117.036C686.555 116.846 687.925 118.766 689.105 118.706C690.285 118.646 691.425 116.576 692.615 116.636C693.805 116.696 694.765 118.856 695.905 119.026C697.045 119.196 698.645 117.436 699.765 117.726C700.885 118.016 701.405 120.346 702.495 120.726C703.585 121.106 705.495 119.726 706.495 120.266C707.495 120.806 707.495 123.156 708.495 123.796C709.495 124.436 711.635 123.446 712.545 124.186C713.455 124.926 712.965 127.186 713.805 128.066C714.645 128.946 716.945 128.376 717.685 129.286C718.425 130.196 717.465 132.356 718.115 133.336C718.765 134.316 721.115 134.286 721.665 135.336C722.215 136.386 720.805 138.286 721.235 139.336C721.665 140.386 723.985 140.896 724.295 142.036C724.605 143.176 722.835 144.736 723.025 145.906C723.215 147.076 725.385 147.996 725.445 149.176C725.505 150.356 723.445 151.516 723.445 152.706C723.445 153.896 725.315 155.266 725.145 156.416C724.975 157.566 722.715 158.316 722.415 159.416C722.115 160.516 723.715 162.306 723.305 163.416C722.895 164.526 720.535 164.766 720.005 165.806C719.475 166.846 720.675 168.896 720.005 169.886C719.335 170.876 717.005 170.616 716.275 171.536C715.545 172.456 716.275 174.696 715.465 175.536C714.655 176.376 712.385 175.636 711.465 176.376C710.545 177.116 710.835 179.476 709.855 180.116C708.875 180.756 706.855 179.576 705.775 180.116C704.695 180.656 704.515 183.006 703.415 183.436C702.315 183.866 700.565 182.276 699.415 182.586C698.265 182.896 697.575 185.156 696.415 185.346C695.255 185.536 693.885 183.606 692.705 183.676C691.525 183.746 690.375 185.806 689.185 185.746C687.995 185.686 687.045 183.526 685.895 183.346C684.745 183.166 683.155 184.946 682.035 184.646C680.915 184.346 680.395 182.036 679.305 181.646C678.215 181.256 676.305 182.646 675.255 182.116C674.205 181.586 674.255 179.216 673.255 178.586C672.255 177.956 670.115 178.926 669.255 178.196C668.395 177.466 668.835 175.136 668.005 174.316C667.175 173.496 664.855 174.006 664.115 173.096C663.375 172.186 664.335 170.026 663.685 169.096C663.035 168.166 660.685 168.096 660.135 167.096C659.585 166.096 660.995 164.096 660.565 163.036C660.135 161.976 657.825 161.486 657.565 160.346C657.305 159.206 659.015 157.636 658.825 156.476C658.635 155.316 656.465 154.376 656.405 153.196C656.345 152.016 658.315 150.856 658.365 149.676Z" fill="#2377B2" stroke="#263238" stroke-linecap="round" stroke-linejoin="round"/>
<path d="M699.333 177.609C713.9 172.954 721.936 157.372 717.281 142.805C712.626 128.238 697.044 120.202 682.477 124.857C667.91 129.511 659.874 145.093 664.528 159.661C669.183 174.228 684.765 182.264 699.333 177.609Z" fill="#263238" stroke="#263238" stroke-linecap="round" stroke-linejoin="round"/>
<path d="M711.393 164.737C718.855 153.416 715.727 138.19 704.406 130.728C693.085 123.266 677.859 126.395 670.397 137.715C662.936 149.036 666.064 164.262 677.385 171.724C688.705 179.186 703.931 176.057 711.393 164.737Z" fill="white" stroke="#263238" stroke-linecap="round" stroke-linejoin="round"/>
<path d="M673.075 147.446L673.875 149.906H676.465L674.365 151.426L675.165 153.896L673.075 152.366L670.975 153.896L671.775 151.426L669.685 149.906H672.275L673.075 147.446Z" fill="#2377B2" stroke="#263238" stroke-width="0.5" stroke-linecap="round" stroke-linejoin="round"/>
<path d="M681.954 147.446L682.754 149.906H685.344L683.254 151.426L684.044 153.896L681.954 152.366L679.864 153.896L680.664 151.426L678.564 149.906H681.154L681.954 147.446Z" fill="#2377B2" stroke="#263238" stroke-width="0.5" stroke-linecap="round" stroke-linejoin="round"/>
<path d="M690.834 147.446L691.634 149.906H694.224L692.134 151.426L692.934 153.896L690.834 152.366L688.744 153.896L689.544 151.426L687.454 149.906H690.034L690.834 147.446Z" fill="#2377B2" stroke="#263238" stroke-width="0.5" stroke-linecap="round" stroke-linejoin="round"/>
<path d="M699.725 147.446L700.525 149.906H703.115L701.015 151.426L701.815 153.896L699.725 152.366L697.625 153.896L698.425 151.426L696.335 149.906H698.925L699.725 147.446Z" fill="#2377B2" stroke="#263238" stroke-width="0.5" stroke-linecap="round" stroke-linejoin="round"/>
<path d="M708.605 147.446L709.405 149.906H711.995L709.895 151.426L710.705 153.896L708.605 152.366L706.515 153.896L707.315 151.426L705.215 149.906H707.805L708.605 147.446Z" fill="#2377B2" stroke="#263238" stroke-width="0.5" stroke-linecap="round" stroke-linejoin="round"/>
<path d="M674.785 274.946C674.485 274.8 674.206 274.615 673.955 274.396C673.651 274.134 673.364 273.853 673.095 273.556C672.829 273.264 672.586 272.953 672.365 272.626H672.085C671.35 272.664 670.618 272.494 669.975 272.136C669.449 271.805 669.054 271.304 668.855 270.716C668.613 270.012 668.498 269.27 668.515 268.526V263.946C668.495 263.211 668.61 262.479 668.855 261.786C669.058 261.211 669.454 260.723 669.975 260.406C670.621 260.055 671.351 259.889 672.085 259.926C672.829 259.886 673.569 260.053 674.225 260.406C674.749 260.723 675.148 261.21 675.355 261.786C675.6 262.479 675.715 263.211 675.695 263.946V268.636C675.698 269.18 675.641 269.724 675.525 270.256C675.427 270.707 675.236 271.133 674.965 271.506C674.711 271.866 674.366 272.152 673.965 272.336L674.375 272.776L674.805 273.216C674.936 273.333 675.077 273.44 675.225 273.536L674.785 274.946ZM672.085 270.946C672.226 270.967 672.369 270.96 672.507 270.925C672.645 270.89 672.774 270.828 672.888 270.742C673.002 270.656 673.097 270.549 673.169 270.426C673.24 270.303 673.287 270.167 673.305 270.026C673.367 269.716 673.397 269.401 673.395 269.086V263.336C673.398 263.02 673.368 262.705 673.305 262.396C673.256 262.142 673.126 261.91 672.935 261.736C672.689 261.558 672.388 261.473 672.085 261.496C671.788 261.473 671.493 261.558 671.255 261.736C671.06 261.906 670.932 262.14 670.895 262.396C670.832 262.705 670.802 263.02 670.805 263.336V269.086C670.803 269.401 670.833 269.716 670.895 270.026C670.934 270.287 671.061 270.527 671.255 270.706C671.493 270.884 671.788 270.969 672.085 270.946Z" fill="#263238"/>
<path d="M680.804 272.666C680.053 272.709 679.306 272.532 678.654 272.156C678.136 271.816 677.757 271.301 677.584 270.706C677.378 269.974 677.28 269.216 677.294 268.456V260.016H679.514V268.726C679.515 269.094 679.541 269.462 679.594 269.826C679.629 270.132 679.754 270.421 679.954 270.656C680.065 270.767 680.198 270.853 680.344 270.909C680.491 270.964 680.648 270.987 680.804 270.976C680.966 270.991 681.128 270.969 681.28 270.914C681.432 270.859 681.57 270.771 681.684 270.656C681.874 270.416 681.994 270.129 682.034 269.826C682.096 269.462 682.126 269.094 682.124 268.726V260.016H684.324V268.456C684.339 269.216 684.241 269.974 684.034 270.706C683.862 271.299 683.487 271.812 682.974 272.156C682.316 272.534 681.562 272.711 680.804 272.666Z" fill="#263238"/>
<path d="M685.414 272.496L687.914 260.016H690.344L692.844 272.496H690.734L690.244 269.616H688.064L687.554 272.496H685.414ZM688.294 268.166H689.994L689.144 262.926L688.294 268.166Z" fill="#263238"/>
<path d="M694.034 272.496V260.016H696.314V270.946H699.314V272.516L694.034 272.496Z" fill="#263238"/>
<path d="M700.524 272.496V260.016H702.774V272.496H700.524Z" fill="#263238"/>
<path d="M705.944 272.496V261.696H703.944V260.016H710.174V261.696H708.174V272.496H705.944Z" fill="#263238"/>
<path d="M713.064 272.496V267.736L710.534 260.016H712.624L714.164 265.016L715.614 260.016H717.694L715.194 267.736V272.496H713.064Z" fill="#263238"/>
<path d="M466.624 107.036L469.714 129.676L455.304 133.106C451.352 135.781 447.226 138.19 442.954 140.316C437.114 143.056 433.004 144.086 430.954 144.086C428.904 144.086 421.344 140.996 421.344 140.996C421.344 140.996 426.494 113.206 432.344 110.116C438.194 107.026 453.564 102.576 466.624 107.036Z" fill="white" stroke="#263238" stroke-linecap="round" stroke-linejoin="round"/>
<path d="M393.344 106.246C393.344 106.246 419.104 104.606 422.874 104.606C426.644 104.606 435.034 113.946 435.034 113.946C435.034 113.946 450.394 139.516 449.104 141.046C445.864 144.886 443.274 142.106 443.274 142.106L442.684 144.806C442.684 144.806 440.184 147.906 427.494 146.196C414.804 144.486 410.684 140.656 407.624 139.946C404.564 139.236 387.894 134.616 387.894 134.616L393.344 106.246Z" fill="white" stroke="#263238" stroke-linecap="round" stroke-linejoin="round"/>
<path d="M443.274 142.056L439.034 133.876" stroke="#263238" stroke-linecap="round" stroke-linejoin="round"/>
<path d="M439.034 145.846L433.774 136.796" stroke="#263238" stroke-linecap="round" stroke-linejoin="round"/>
<path d="M459.394 109.086C459.394 109.086 433.624 101.196 428.524 106.686C423.424 112.176 412.394 126.586 414.794 128.306C417.194 130.026 425.794 123.496 427.794 122.126C429.307 121.03 430.689 119.765 431.914 118.356C434.305 120.716 437.276 122.403 440.529 123.246C443.781 124.089 447.198 124.058 450.434 123.156" fill="white"/>
<path d="M459.394 109.086C459.394 109.086 433.624 101.196 428.524 106.686C423.424 112.176 412.394 126.586 414.794 128.306C417.194 130.026 425.794 123.496 427.794 122.126C429.307 121.03 430.689 119.765 431.914 118.356C434.305 120.716 437.276 122.403 440.529 123.246C443.781 124.089 447.198 124.058 450.434 123.156" stroke="#263238" stroke-linecap="round" stroke-linejoin="round"/>
<path d="M431.094 136.306C431.094 136.306 428.624 145.126 429.624 146.626C429.997 147.253 430.567 147.74 431.245 148.012C431.923 148.283 432.671 148.323 433.374 148.126C434.218 147.778 434.986 147.268 435.634 146.626C435.634 146.626 436.004 139.126 434.884 137.246C433.764 135.366 432.784 134.056 431.094 136.306Z" fill="white" stroke="#263238" stroke-linecap="round" stroke-linejoin="round"/>
<path d="M424.524 137.436C424.524 137.436 422.084 146.256 423.024 147.756C423.399 148.384 423.97 148.871 424.65 149.143C425.33 149.414 426.08 149.453 426.784 149.256C427.621 148.901 428.385 148.392 429.034 147.756C429.034 147.756 429.404 140.246 428.284 138.376C427.164 136.506 426.214 135.186 424.524 137.436Z" fill="white" stroke="#263238" stroke-linecap="round" stroke-linejoin="round"/>
<path d="M417.924 137.746C417.924 137.746 416.054 144.516 416.774 145.666C417.059 146.142 417.491 146.513 418.006 146.721C418.52 146.928 419.089 146.962 419.624 146.816C420.27 146.547 420.857 146.157 421.354 145.666C421.354 145.666 421.644 139.906 420.784 138.466C419.924 137.026 419.214 136.026 417.924 137.746Z" fill="white" stroke="#263238" stroke-linecap="round" stroke-linejoin="round"/>
<path d="M410.134 138.036C410.134 138.036 408.664 142.516 409.234 143.276C409.497 143.607 409.85 143.855 410.251 143.99C410.652 144.125 411.084 144.141 411.494 144.036C411.989 143.866 412.45 143.608 412.854 143.276C412.854 143.276 413.084 139.466 412.404 138.516C411.724 137.566 411.154 136.946 410.134 138.036Z" fill="white" stroke="#263238" stroke-linecap="round" stroke-linejoin="round"/>
<path d="M471.224 100.051L461.476 102.093L469.44 140.118L479.189 138.076L471.224 100.051Z" fill="white" stroke="#263238" stroke-linecap="round" stroke-linejoin="round"/>
<path d="M483.807 96.9104L468.205 100.178L477.09 142.598L492.692 139.33L483.807 96.9104Z" fill="#2377B2" stroke="#263238" stroke-linecap="round" stroke-linejoin="round"/>
<path d="M381.646 138.076L391.395 140.118L399.359 102.093L389.611 100.051L381.646 138.076Z" fill="white" stroke="#263238" stroke-linecap="round" stroke-linejoin="round"/>
<path d="M368.147 139.329L383.748 142.596L392.633 100.177L377.032 96.9091L368.147 139.329Z" fill="#263238" stroke="#263238" stroke-linecap="round" stroke-linejoin="round"/>
<path d="M376.624 169.146C375.869 169.188 375.119 169 374.474 168.606C373.958 168.249 373.575 167.733 373.384 167.136C373.17 166.439 373.066 165.714 373.074 164.986V160.526C373.063 159.774 373.168 159.025 373.384 158.306C373.57 157.711 373.955 157.199 374.474 156.856C375.127 156.485 375.874 156.311 376.624 156.356C377.317 156.323 378.006 156.471 378.624 156.786C379.086 157.086 379.437 157.528 379.624 158.046C379.834 158.657 379.936 159.3 379.924 159.946V160.946H377.744V159.946C377.746 159.628 377.726 159.311 377.684 158.996C377.667 158.74 377.565 158.497 377.394 158.306C377.28 158.21 377.147 158.138 377.005 158.095C376.862 158.053 376.712 158.039 376.564 158.056C376.412 158.042 376.258 158.059 376.112 158.106C375.966 158.152 375.831 158.227 375.714 158.326C375.524 158.522 375.401 158.775 375.364 159.046C375.315 159.377 375.292 159.711 375.294 160.046V165.466C375.285 165.842 375.318 166.217 375.394 166.586C375.445 166.852 375.593 167.091 375.809 167.255C376.024 167.419 376.294 167.498 376.564 167.476C376.711 167.493 376.859 167.478 376.999 167.431C377.139 167.385 377.267 167.308 377.374 167.206C377.544 167.001 377.649 166.75 377.674 166.486C377.725 166.155 377.748 165.82 377.744 165.486V164.346H379.924V165.346C379.943 166.024 379.845 166.701 379.634 167.346C379.461 167.892 379.109 168.365 378.634 168.686C378.022 169.028 377.324 169.188 376.624 169.146Z" fill="#263238"/>
<path d="M384.984 169.146C384.233 169.189 383.485 169.012 382.834 168.636C382.316 168.296 381.936 167.781 381.764 167.186C381.558 166.454 381.461 165.696 381.474 164.936V156.486H383.694V165.196C383.689 165.564 383.715 165.932 383.774 166.296C383.806 166.606 383.932 166.899 384.134 167.136C384.376 167.336 384.68 167.445 384.994 167.445C385.308 167.445 385.612 167.336 385.854 167.136C386.048 166.894 386.172 166.603 386.214 166.296C386.272 165.932 386.299 165.564 386.294 165.196V156.486H388.504V164.946C388.519 165.707 388.418 166.465 388.204 167.196C388.039 167.789 387.666 168.304 387.154 168.646C386.495 169.02 385.74 169.194 384.984 169.146Z" fill="#263238"/>
<path d="M393.434 169.146C392.78 169.168 392.131 169.016 391.554 168.706C391.044 168.411 390.644 167.958 390.414 167.416C390.136 166.757 389.99 166.051 389.984 165.336L391.934 164.946C391.947 165.378 392.007 165.807 392.114 166.226C392.187 166.546 392.343 166.843 392.564 167.086C392.669 167.187 392.792 167.266 392.928 167.318C393.064 167.369 393.209 167.393 393.354 167.386C393.503 167.4 393.653 167.377 393.791 167.319C393.928 167.262 394.05 167.171 394.144 167.056C394.305 166.806 394.385 166.513 394.374 166.216C394.397 165.741 394.267 165.272 394.004 164.876C393.715 164.487 393.379 164.134 393.004 163.826L391.434 162.436C391.011 162.076 390.653 161.646 390.374 161.166C390.099 160.632 389.964 160.036 389.984 159.436C389.96 159.017 390.024 158.597 390.173 158.204C390.321 157.812 390.55 157.454 390.844 157.156C391.498 156.594 392.344 156.307 393.204 156.356C393.707 156.341 394.207 156.43 394.674 156.616C395.045 156.78 395.366 157.038 395.604 157.366C395.839 157.697 396.015 158.065 396.124 158.456C396.238 158.877 396.308 159.31 396.334 159.746L394.394 160.076C394.379 159.739 394.336 159.405 394.264 159.076C394.213 158.804 394.089 158.552 393.904 158.346C393.805 158.255 393.688 158.185 393.561 158.14C393.434 158.095 393.299 158.077 393.164 158.086C393.018 158.08 392.873 158.107 392.738 158.164C392.603 158.221 392.482 158.307 392.384 158.416C392.199 158.652 392.104 158.946 392.114 159.246C392.112 159.596 392.202 159.941 392.374 160.246C392.59 160.557 392.846 160.84 393.134 161.086L394.684 162.456C395.202 162.89 395.647 163.403 396.004 163.976C396.382 164.61 396.573 165.338 396.554 166.076C396.566 166.632 396.428 167.181 396.154 167.666C395.901 168.121 395.523 168.496 395.064 168.746C394.566 169.021 394.004 169.159 393.434 169.146Z" fill="#263238"/>
<path d="M399.154 168.946V158.166H397.154V156.486H403.374V158.166H401.424V168.946H399.154Z" fill="#263238"/>
<path d="M407.854 169.146C407.118 169.18 406.387 169.007 405.744 168.646C405.219 168.319 404.824 167.821 404.624 167.236C404.382 166.532 404.267 165.79 404.284 165.046V160.376C404.265 159.638 404.381 158.903 404.624 158.206C404.828 157.631 405.223 157.143 405.744 156.826C406.409 156.514 407.135 156.352 407.869 156.352C408.604 156.352 409.329 156.514 409.994 156.826C410.513 157.146 410.907 157.633 411.114 158.206C411.362 158.902 411.48 159.637 411.464 160.376V165.056C411.479 165.794 411.361 166.529 411.114 167.226C410.906 167.809 410.513 168.308 409.994 168.646C409.342 169.009 408.6 169.182 407.854 169.146ZM407.854 167.466C408.155 167.488 408.454 167.399 408.694 167.216C408.885 167.033 409.014 166.795 409.064 166.536C409.126 166.226 409.156 165.911 409.154 165.596V159.846C409.157 159.53 409.127 159.215 409.064 158.906C409.009 158.657 408.88 158.43 408.694 158.256C408.453 158.077 408.154 157.991 407.854 158.016C407.564 157.994 407.276 158.079 407.044 158.256C406.851 158.425 406.721 158.654 406.674 158.906C406.603 159.214 406.569 159.53 406.574 159.846V165.596C406.572 165.911 406.602 166.226 406.664 166.536C406.707 166.796 406.833 167.034 407.024 167.216C407.262 167.396 407.557 167.484 407.854 167.466Z" fill="#263238"/>
<path d="M413.114 168.946L413.324 156.456H415.684L417.464 165.106L419.304 156.456H421.624L421.824 168.946H420.124L419.944 160.266L418.164 168.946H416.794L414.994 160.236L414.824 168.946H413.114Z" fill="#263238"/>
<path d="M423.624 168.946V156.486H428.864V158.096H425.864V161.686H428.194V163.276H425.864V167.406H428.864V168.946H423.624Z" fill="#263238"/>
<path d="M430.174 168.946V156.486H433.174C433.895 156.468 434.615 156.57 435.304 156.786C435.849 156.955 436.32 157.309 436.634 157.786C436.969 158.397 437.125 159.09 437.084 159.786C437.091 160.243 437.047 160.699 436.954 161.146C436.869 161.508 436.709 161.849 436.484 162.146C436.241 162.443 435.923 162.671 435.564 162.806L437.304 168.956H435.024L433.514 163.236H432.464V168.946H430.174ZM432.454 161.796H433.164C433.508 161.803 433.849 161.735 434.164 161.596C434.427 161.475 434.631 161.256 434.734 160.986C434.856 160.636 434.913 160.266 434.904 159.896C434.938 159.401 434.816 158.907 434.554 158.486C434.386 158.31 434.179 158.176 433.95 158.094C433.72 158.013 433.475 157.986 433.234 158.016H432.404L432.454 161.796Z" fill="#263238"/>
<path d="M442.534 168.946V156.486H444.814V167.406H447.814V168.946H442.534Z" fill="#263238"/>
<path d="M452.254 169.146C451.517 169.18 450.786 169.007 450.144 168.646C449.619 168.319 449.223 167.821 449.024 167.236C448.782 166.532 448.667 165.79 448.684 165.046V160.376C448.665 159.638 448.78 158.903 449.024 158.206C449.227 157.631 449.623 157.143 450.144 156.826C450.809 156.514 451.534 156.352 452.269 156.352C453.003 156.352 453.729 156.514 454.394 156.826C454.912 157.146 455.307 157.633 455.514 158.206C455.766 158.901 455.884 159.637 455.864 160.376V165.056C455.884 165.795 455.765 166.531 455.514 167.226C455.306 167.809 454.912 168.308 454.394 168.646C453.741 169.009 453 169.182 452.254 169.146ZM452.254 167.466C452.555 167.488 452.853 167.399 453.094 167.216C453.288 167.035 453.417 166.797 453.464 166.536C453.526 166.226 453.556 165.911 453.554 165.596V159.846C453.557 159.53 453.527 159.215 453.464 158.906C453.413 158.655 453.283 158.428 453.094 158.256C452.852 158.077 452.553 157.991 452.254 158.016C451.963 157.994 451.675 158.079 451.444 158.256C451.251 158.425 451.12 158.654 451.074 158.906C451.011 159.215 450.98 159.53 450.984 159.846V165.596C450.978 165.911 451.005 166.226 451.064 166.536C451.106 166.796 451.233 167.034 451.424 167.216C451.662 167.396 451.956 167.484 452.254 167.466Z" fill="#263238"/>
<path d="M459.164 168.946V164.176L456.624 156.486H458.754L460.294 161.436L461.744 156.486H463.824L461.324 164.206V168.946H459.164Z" fill="#263238"/>
<path d="M463.814 168.946L466.314 156.456H468.754L471.244 168.946H469.134L468.644 166.066H466.464L465.954 168.946H463.814ZM466.704 164.616H468.394L467.544 159.376L466.704 164.616Z" fill="#263238"/>
<path d="M472.434 168.946V156.486H474.714V167.406H477.714V168.946H472.434Z" fill="#263238"/>
<path d="M479.554 168.946V158.166H477.554V156.486H483.784V158.166H481.784V168.946H479.554Z" fill="#263238"/>
<path d="M486.674 168.946V164.176L484.144 156.456H486.274L487.814 161.406L489.264 156.456H491.344L488.844 164.176V168.946H486.674Z" fill="#263238"/>
<path d="M173.004 181.016V170.666L162.674 169.516C162.117 167.359 161.266 165.29 160.144 163.366L166.674 155.206L159.354 147.946L151.234 154.436C149.312 153.308 147.247 152.443 145.094 151.866L143.944 141.446H133.624L132.454 151.766C130.295 152.328 128.222 153.183 126.294 154.306L118.134 147.776L110.824 155.096L117.324 163.216C116.193 165.138 115.325 167.203 114.744 169.356L104.374 170.506V180.846L114.704 181.996C115.263 184.155 116.114 186.227 117.234 188.156L110.704 196.316L118.024 203.626L126.144 197.126C128.064 198.258 130.13 199.123 132.284 199.696L133.434 210.076H143.784L144.924 199.746C147.083 199.187 149.155 198.335 151.084 197.216L159.244 203.736L166.554 196.426L160.054 188.306C161.185 186.384 162.053 184.319 162.634 182.166L173.004 181.016ZM138.694 188.106C136.251 188.108 133.862 187.385 131.83 186.029C129.798 184.673 128.213 182.745 127.277 180.489C126.341 178.232 126.095 175.749 126.57 173.353C127.046 170.956 128.221 168.755 129.948 167.027C131.674 165.298 133.875 164.121 136.271 163.644C138.667 163.166 141.151 163.41 143.408 164.345C145.665 165.279 147.594 166.862 148.952 168.893C150.309 170.925 151.034 173.313 151.034 175.756C151.034 179.029 149.734 182.169 147.42 184.485C145.106 186.801 141.968 188.103 138.694 188.106Z" fill="#263238" stroke="#263238" stroke-linecap="round" stroke-linejoin="round"/>
<path d="M213.624 160.256L212.474 153.406L205.474 153.786C204.86 152.423 204.066 151.148 203.114 149.996L206.624 143.866L200.974 139.866L196.314 145.066C194.917 144.535 193.453 144.198 191.964 144.066L190.054 137.326L183.204 138.466L183.594 145.466C182.227 146.077 180.948 146.871 179.794 147.826L173.624 144.326L169.624 149.946L174.824 154.596C174.293 155.993 173.957 157.457 173.824 158.946L167.044 160.946L168.194 167.786L175.194 167.406C175.801 168.77 176.591 170.045 177.544 171.196L174.134 177.326L179.784 181.326L184.444 176.126C185.841 176.657 187.305 176.993 188.794 177.126L190.704 183.866L197.554 182.726L197.164 175.726C198.531 175.114 199.81 174.32 200.964 173.366L207.084 176.786L211.084 171.126L205.884 166.476C206.41 165.077 206.746 163.614 206.884 162.126L213.624 160.256ZM191.684 168.746C190.069 169.014 188.411 168.797 186.919 168.123C185.428 167.449 184.169 166.348 183.303 164.959C182.437 163.57 182.001 161.956 182.052 160.32C182.103 158.683 182.638 157.099 183.589 155.767C184.54 154.434 185.865 153.414 187.396 152.834C188.927 152.254 190.595 152.141 192.19 152.509C193.785 152.877 195.235 153.71 196.357 154.902C197.479 156.094 198.223 157.591 198.494 159.206C198.856 161.369 198.346 163.588 197.075 165.376C195.804 167.165 193.876 168.376 191.714 168.746H191.684Z" fill="#2377B2" stroke="#263238" stroke-linecap="round" stroke-linejoin="round"/>
<path d="M197.414 223.266L196.264 216.416L189.264 216.796C188.65 215.433 187.857 214.158 186.904 213.006L190.324 206.886L184.664 202.886L180.014 208.086C178.615 207.562 177.152 207.226 175.664 207.086L173.744 200.346L166.904 201.496L167.284 208.496C165.919 209.112 164.642 209.905 163.484 210.856L157.364 207.446L153.364 213.096L158.564 217.756C158.035 219.15 157.698 220.61 157.564 222.096L150.814 223.946L151.954 230.796L158.954 230.406C159.562 231.775 160.356 233.054 161.314 234.206L157.894 240.326L163.544 244.326L168.204 239.126C169.602 239.657 171.066 239.993 172.554 240.126L174.464 246.876L181.314 245.726L180.934 238.726C182.299 238.119 183.574 237.328 184.724 236.376L190.854 239.786L194.854 234.136L189.654 229.476C190.181 228.077 190.517 226.614 190.654 225.126L197.414 223.266ZM175.484 231.766C173.867 232.038 172.205 231.825 170.709 231.152C169.213 230.48 167.95 229.379 167.08 227.989C166.21 226.598 165.772 224.981 165.821 223.342C165.871 221.703 166.405 220.115 167.357 218.779C168.309 217.444 169.636 216.42 171.169 215.839C172.703 215.258 174.375 215.144 175.973 215.513C177.571 215.882 179.023 216.717 180.147 217.912C181.27 219.107 182.014 220.608 182.284 222.226C182.646 224.392 182.133 226.614 180.858 228.403C179.583 230.191 177.651 231.401 175.484 231.766Z" fill="white" stroke="#263238" stroke-linecap="round" stroke-linejoin="round"/>
<path d="M132.794 272.666C132.139 272.692 131.489 272.54 130.914 272.226C130.409 271.929 130.011 271.481 129.774 270.946C129.496 270.287 129.35 269.58 129.344 268.866L131.344 268.476C131.359 268.907 131.416 269.336 131.514 269.756C131.587 270.074 131.742 270.367 131.964 270.606C132.068 270.706 132.192 270.785 132.328 270.836C132.464 270.888 132.609 270.911 132.754 270.906C132.903 270.922 133.053 270.9 133.191 270.842C133.329 270.784 133.45 270.693 133.544 270.576C133.708 270.328 133.789 270.033 133.774 269.736C133.794 269.261 133.665 268.792 133.404 268.396C133.115 268.021 132.778 267.685 132.404 267.396L130.804 265.946C130.383 265.586 130.028 265.156 129.754 264.676C129.478 264.138 129.344 263.539 129.364 262.936C129.34 262.517 129.404 262.097 129.552 261.704C129.7 261.312 129.929 260.954 130.224 260.656C130.878 260.095 131.723 259.808 132.584 259.856C133.084 259.84 133.582 259.932 134.044 260.126C134.414 260.29 134.735 260.548 134.974 260.876C135.21 261.202 135.386 261.568 135.494 261.956C135.604 262.379 135.678 262.81 135.714 263.246L133.714 263.586C133.697 263.249 133.654 262.915 133.584 262.586C133.542 262.316 133.42 262.065 133.234 261.866C133.133 261.773 133.015 261.703 132.886 261.658C132.757 261.613 132.62 261.596 132.484 261.606C132.338 261.6 132.192 261.627 132.057 261.684C131.922 261.741 131.802 261.827 131.704 261.936C131.519 262.168 131.424 262.459 131.434 262.756C131.428 263.106 131.518 263.452 131.694 263.756C131.91 264.068 132.165 264.35 132.454 264.596L134.064 265.946C134.578 266.38 135.02 266.893 135.374 267.466C135.756 268.098 135.947 268.827 135.924 269.566C135.935 270.121 135.8 270.669 135.534 271.156C135.276 271.615 134.895 271.993 134.434 272.246C133.933 272.526 133.368 272.671 132.794 272.666Z" fill="#263238"/>
<path d="M140.684 272.666C139.933 272.709 139.186 272.532 138.534 272.156C138.016 271.815 137.637 271.301 137.464 270.706C137.257 269.974 137.16 269.216 137.174 268.456V260.016H139.394V268.726C139.391 269.093 139.415 269.461 139.464 269.826C139.506 270.132 139.635 270.42 139.834 270.656C140.074 270.861 140.379 270.974 140.694 270.974C141.01 270.974 141.315 270.861 141.554 270.656C141.747 270.416 141.871 270.13 141.914 269.826C141.967 269.461 141.994 269.094 141.994 268.726V260.016H144.204V268.456C144.221 269.217 144.12 269.976 143.904 270.706C143.752 271.292 143.398 271.805 142.904 272.156C142.232 272.543 141.459 272.721 140.684 272.666Z" fill="#263238"/>
<path d="M145.984 272.496V260.016H149.624C150.26 259.991 150.89 260.132 151.454 260.426C151.909 260.711 152.26 261.136 152.454 261.636C152.689 262.248 152.801 262.9 152.784 263.556C152.818 264.246 152.677 264.934 152.374 265.556C152.115 266.036 151.704 266.416 151.204 266.636C150.649 266.876 150.049 266.992 149.444 266.976H148.204V272.526L145.984 272.496ZM148.264 265.346H149.134C149.477 265.369 149.821 265.307 150.134 265.166C150.25 265.109 150.352 265.03 150.435 264.932C150.517 264.833 150.579 264.719 150.614 264.596C150.714 264.255 150.757 263.9 150.744 263.546C150.754 263.176 150.72 262.807 150.644 262.446C150.59 262.187 150.435 261.961 150.214 261.816C149.902 261.669 149.559 261.6 149.214 261.616H148.344L148.264 265.346Z" fill="#263238"/>
<path d="M154.044 272.496V260.016H157.714C158.349 259.991 158.98 260.132 159.544 260.426C159.999 260.711 160.349 261.136 160.544 261.636C160.779 262.248 160.891 262.9 160.874 263.556C160.907 264.246 160.766 264.934 160.464 265.556C160.205 266.036 159.793 266.416 159.294 266.636C158.739 266.876 158.138 266.992 157.534 266.976H156.304V272.526L154.044 272.496ZM156.334 265.346H157.194C157.537 265.369 157.88 265.307 158.194 265.166C158.309 265.109 158.412 265.03 158.494 264.932C158.577 264.833 158.638 264.719 158.674 264.596C158.773 264.255 158.817 263.9 158.804 263.546C158.814 263.176 158.78 262.807 158.704 262.446C158.649 262.187 158.495 261.961 158.274 261.816C157.962 261.669 157.619 261.6 157.274 261.616H156.414L156.334 265.346Z" fill="#263238"/>
<path d="M165.564 272.666C164.828 272.705 164.097 272.535 163.454 272.176C162.926 271.846 162.527 271.344 162.324 270.756C162.082 270.052 161.967 269.31 161.984 268.566V263.946C161.964 263.211 162.079 262.479 162.324 261.786C162.531 261.21 162.93 260.723 163.454 260.406C164.1 260.055 164.83 259.889 165.564 259.926C166.304 259.885 167.042 260.051 167.694 260.406C168.215 260.725 168.613 261.211 168.824 261.786C169.068 262.479 169.184 263.211 169.164 263.946V268.636C169.181 269.37 169.066 270.102 168.824 270.796C168.614 271.381 168.217 271.88 167.694 272.216C167.039 272.56 166.302 272.715 165.564 272.666ZM165.564 270.986C165.863 271.01 166.162 270.925 166.404 270.746C166.591 270.561 166.716 270.324 166.764 270.066C166.826 269.756 166.856 269.441 166.854 269.126V263.376C166.857 263.06 166.827 262.745 166.764 262.436C166.718 262.183 166.592 261.951 166.404 261.776C166.155 261.619 165.867 261.537 165.574 261.537C165.28 261.537 164.992 261.619 164.744 261.776C164.552 261.95 164.423 262.182 164.374 262.436C164.311 262.745 164.28 263.06 164.284 263.376V269.126C164.283 269.441 164.31 269.755 164.364 270.066C164.372 270.209 164.411 270.349 164.479 270.475C164.546 270.602 164.64 270.713 164.753 270.8C164.867 270.887 164.999 270.949 165.138 270.981C165.278 271.013 165.423 271.015 165.564 270.986Z" fill="#263238"/>
<path d="M170.844 272.496V260.016H173.844C174.569 259.998 175.292 260.099 175.984 260.316C176.527 260.484 176.994 260.838 177.304 261.316C177.645 261.925 177.805 262.619 177.764 263.316C177.767 263.769 177.72 264.222 177.624 264.666C177.541 265.029 177.381 265.37 177.154 265.666C176.912 265.962 176.594 266.186 176.234 266.316L177.974 272.466H175.694L174.184 266.746H173.184V272.466L170.844 272.496ZM173.124 265.346H173.834C174.197 265.364 174.559 265.299 174.894 265.156C175.152 265.027 175.352 264.806 175.454 264.536C175.576 264.189 175.634 263.823 175.624 263.456C175.663 262.96 175.54 262.465 175.274 262.046C175.109 261.869 174.904 261.734 174.676 261.652C174.448 261.57 174.204 261.544 173.964 261.576H173.124V265.346Z" fill="#263238"/>
<path d="M180.684 272.496V261.696H178.684V260.016H184.904V261.696H182.954V272.496H180.684Z" fill="#263238"/>
<path d="M121.194 365.596H110.894V396.326H121.194V365.596Z" fill="#263238" stroke="#263238" stroke-width="0.5" stroke-linecap="round" stroke-linejoin="round"/>
<path d="M137.384 376.646H127.084V396.326H137.384V376.646Z" fill="#2377B2" stroke="#263238" stroke-linecap="round" stroke-linejoin="round"/>
<path d="M153.573 358.866H143.273V396.326H153.573V358.866Z" fill="#263238" stroke="#263238" stroke-width="0.5" stroke-linecap="round" stroke-linejoin="round"/>
<path d="M169.764 366.616H159.464V396.326H169.764V366.616Z" fill="#2377B2" stroke="#263238" stroke-linecap="round" stroke-linejoin="round"/>
<path d="M185.953 359.826H175.653V396.326H185.953V359.826Z" fill="#263238" stroke="#263238" stroke-width="0.5" stroke-linecap="round" stroke-linejoin="round"/>
<path d="M202.134 338.196H191.834V396.326H202.134V338.196Z" fill="#2377B2" stroke="#263238" stroke-linecap="round" stroke-linejoin="round"/>
<path d="M213.714 337.576H219.744" stroke="#263238" stroke-width="0.5" stroke-linecap="round" stroke-linejoin="round"/>
<path d="M213.714 349.326H219.744" stroke="#263238" stroke-width="0.5" stroke-linecap="round" stroke-linejoin="round"/>
<path d="M213.714 361.086H219.744" stroke="#263238" stroke-width="0.5" stroke-linecap="round" stroke-linejoin="round"/>
<path d="M213.714 372.836H219.744" stroke="#263238" stroke-width="0.5" stroke-linecap="round" stroke-linejoin="round"/>
<path d="M213.714 384.586H219.744" stroke="#263238" stroke-width="0.5" stroke-linecap="round" stroke-linejoin="round"/>
<path d="M213.714 396.336H219.744" stroke="#263238" stroke-width="0.5" stroke-linecap="round" stroke-linejoin="round"/>
<path d="M116.783 354.266L132.573 363.806L148.983 346.226L165.193 347.596L180.913 341.356L198.683 317.966" stroke="#263238" stroke-linecap="round" stroke-linejoin="round"/>
<path d="M118.773 354.266C118.773 353.87 118.656 353.484 118.436 353.155C118.217 352.826 117.904 352.569 117.539 352.418C117.173 352.267 116.771 352.227 116.383 352.304C115.995 352.381 115.639 352.572 115.359 352.852C115.08 353.131 114.889 353.488 114.812 353.876C114.735 354.264 114.774 354.666 114.926 355.031C115.077 355.397 115.333 355.709 115.662 355.929C115.991 356.149 116.378 356.266 116.773 356.266C117.304 356.266 117.813 356.055 118.188 355.68C118.563 355.305 118.773 354.796 118.773 354.266Z" fill="#263238"/>
<path d="M134.563 363.806C134.563 363.41 134.446 363.024 134.226 362.695C134.007 362.366 133.694 362.11 133.329 361.958C132.963 361.807 132.561 361.767 132.173 361.844C131.785 361.922 131.429 362.112 131.149 362.392C130.87 362.671 130.679 363.028 130.602 363.416C130.525 363.804 130.564 364.206 130.716 364.571C130.867 364.937 131.123 365.249 131.452 365.469C131.781 365.689 132.168 365.806 132.563 365.806C133.094 365.806 133.603 365.595 133.978 365.22C134.353 364.845 134.563 364.336 134.563 363.806Z" fill="#263238"/>
<path d="M150.974 346.226C150.974 345.83 150.856 345.444 150.637 345.115C150.417 344.786 150.104 344.529 149.739 344.378C149.374 344.227 148.971 344.187 148.583 344.264C148.195 344.341 147.839 344.532 147.559 344.812C147.28 345.091 147.089 345.448 147.012 345.836C146.935 346.224 146.975 346.626 147.126 346.991C147.277 347.357 147.534 347.669 147.862 347.889C148.191 348.109 148.578 348.226 148.974 348.226C149.504 348.226 150.013 348.015 150.388 347.64C150.763 347.265 150.974 346.756 150.974 346.226Z" fill="#263238"/>
<path d="M167.184 347.596C167.184 347.2 167.066 346.813 166.847 346.485C166.627 346.156 166.314 345.899 165.949 345.748C165.584 345.597 165.181 345.557 164.793 345.634C164.405 345.711 164.049 345.902 163.769 346.181C163.49 346.461 163.299 346.818 163.222 347.206C163.145 347.594 163.184 347.996 163.336 348.361C163.487 348.727 163.744 349.039 164.072 349.259C164.401 349.478 164.788 349.596 165.184 349.596C165.714 349.596 166.223 349.385 166.598 349.01C166.973 348.635 167.184 348.126 167.184 347.596Z" fill="#263238"/>
<path d="M182.903 341.046C182.903 340.65 182.786 340.264 182.566 339.935C182.346 339.606 182.034 339.35 181.669 339.198C181.303 339.047 180.901 339.007 180.513 339.084C180.125 339.162 179.769 339.352 179.489 339.632C179.209 339.911 179.019 340.268 178.942 340.656C178.865 341.044 178.904 341.446 179.056 341.811C179.207 342.177 179.463 342.489 179.792 342.709C180.121 342.929 180.508 343.046 180.903 343.046C181.434 343.046 181.942 342.835 182.318 342.46C182.693 342.085 182.903 341.576 182.903 341.046Z" fill="#263238"/>
<path d="M200.684 317.946C200.684 317.55 200.566 317.164 200.347 316.835C200.127 316.506 199.814 316.249 199.449 316.098C199.084 315.947 198.681 315.907 198.293 315.984C197.905 316.061 197.549 316.252 197.269 316.532C196.99 316.811 196.799 317.168 196.722 317.556C196.645 317.944 196.684 318.346 196.836 318.711C196.987 319.077 197.244 319.389 197.572 319.609C197.901 319.829 198.288 319.946 198.684 319.946C199.214 319.946 199.723 319.735 200.098 319.36C200.473 318.985 200.684 318.476 200.684 317.946Z" fill="#263238"/>
<path d="M114.624 426.456V413.946H116.874V426.426L114.624 426.456Z" fill="#263238"/>
<path d="M118.794 426.456L119.014 413.946H121.364L123.144 422.586L124.994 413.946H127.274L127.504 426.426H125.804L125.624 417.776L123.854 426.456H122.474L120.674 417.746L120.504 426.456H118.794Z" fill="#263238"/>
<path d="M129.254 426.456V413.946H132.924C133.559 413.921 134.19 414.062 134.754 414.356C135.209 414.641 135.559 415.065 135.754 415.566C135.989 416.178 136.101 416.83 136.084 417.486C136.116 418.176 135.975 418.864 135.674 419.486C135.415 419.966 135.003 420.346 134.504 420.566C133.949 420.806 133.348 420.922 132.744 420.906H131.534V426.456H129.254ZM131.534 419.306H132.404C132.747 419.328 133.09 419.267 133.404 419.126C133.519 419.069 133.622 418.99 133.704 418.891C133.787 418.793 133.848 418.679 133.884 418.556C133.983 418.215 134.027 417.86 134.014 417.506C134.024 417.136 133.99 416.767 133.914 416.406C133.89 416.276 133.84 416.154 133.766 416.045C133.692 415.937 133.596 415.845 133.484 415.776C133.172 415.629 132.829 415.56 132.484 415.576H131.614L131.534 419.306Z" fill="#263238"/>
<path d="M137.323 426.456V413.946H140.323C141.048 413.928 141.771 414.029 142.463 414.246C143.007 414.414 143.474 414.768 143.783 415.246C144.125 415.855 144.284 416.549 144.243 417.246C144.247 417.7 144.2 418.152 144.103 418.596C144.019 418.959 143.859 419.3 143.633 419.596C143.391 419.892 143.073 420.117 142.713 420.246L144.463 426.396H142.153L140.623 420.736H139.623V426.456H137.323ZM139.623 419.306H140.323C140.686 419.324 141.049 419.259 141.383 419.116C141.642 418.988 141.842 418.766 141.943 418.496C142.072 418.147 142.129 417.777 142.113 417.406C142.147 416.912 142.029 416.42 141.773 415.996C141.605 415.821 141.398 415.687 141.169 415.605C140.94 415.524 140.695 415.497 140.453 415.526H139.623V419.306Z" fill="#263238"/>
<path d="M149.294 426.626C148.559 426.664 147.827 426.494 147.184 426.136C146.656 425.806 146.257 425.305 146.054 424.716C145.817 424.011 145.702 423.27 145.714 422.526V417.856C145.7 417.122 145.815 416.39 146.054 415.696C146.261 415.12 146.66 414.633 147.184 414.316C147.846 414 148.57 413.836 149.304 413.836C150.038 413.836 150.762 414 151.424 414.316C151.946 414.635 152.344 415.122 152.554 415.696C152.802 416.388 152.921 417.12 152.904 417.856V422.546C152.918 423.281 152.8 424.013 152.554 424.706C152.345 425.291 151.947 425.791 151.424 426.126C150.776 426.491 150.037 426.665 149.294 426.626ZM149.294 424.946C149.596 424.972 149.896 424.883 150.134 424.696C150.323 424.517 150.449 424.282 150.494 424.026C150.556 423.716 150.586 423.401 150.584 423.086V417.336C150.587 417.02 150.557 416.705 150.494 416.396C150.448 416.143 150.322 415.911 150.134 415.736C149.885 415.58 149.598 415.497 149.304 415.497C149.01 415.497 148.723 415.58 148.474 415.736C148.283 415.91 148.153 416.142 148.104 416.396C148.041 416.705 148.011 417.02 148.014 417.336V423.086C148.012 423.401 148.042 423.716 148.104 424.026C148.141 424.285 148.268 424.522 148.464 424.696C148.699 424.881 148.996 424.971 149.294 424.946Z" fill="#263238"/>
<path d="M156.433 426.456L153.913 413.946H155.913L157.563 422.776L159.123 413.946H161.193L158.683 426.426L156.433 426.456Z" fill="#263238"/>
<path d="M162.474 426.456V413.946H167.714V415.546H164.714V419.136H167.034V420.726H164.714V424.856H167.714V426.426L162.474 426.456Z" fill="#263238"/>
<path d="M169.033 426.456L169.253 413.976H171.623L173.393 422.616L175.243 413.976H177.523L177.753 426.456H176.053L175.873 417.776L174.103 426.456H172.723L170.913 417.746L170.743 426.456H169.033Z" fill="#263238"/>
<path d="M179.504 426.456V413.946H184.744V415.546H181.744V419.136H184.064V420.726H181.744V424.856H184.744V426.426L179.504 426.456Z" fill="#263238"/>
<path d="M186.094 426.456V413.946H187.684L190.684 421.066V413.946H192.624V426.426H191.114L188.054 418.966V426.426L186.094 426.456Z" fill="#263238"/>
<path d="M195.743 426.456V415.656H193.743V413.946H199.973V415.626H197.973V426.426L195.743 426.456Z" fill="#263238"/>
<path d="M474.944 490.246H385.904L399.254 441.096H461.584L474.944 490.246Z" fill="#263238" stroke="#263238" stroke-linecap="round" stroke-linejoin="round"/>
<path d="M498.094 490.246H362.754V495.236H498.094V490.246Z" fill="#263238" stroke="#263238" stroke-linecap="round" stroke-linejoin="round"/>
<path d="M575.574 222.946H190.624V467.316H575.574V222.946Z" fill="#263238" stroke="#263238" stroke-linecap="round" stroke-linejoin="round"/>
<path d="M610.564 211.206H250.284V436.946H610.564V211.206Z" fill="#B2B2B2" stroke="#263238" stroke-linecap="round" stroke-linejoin="round"/>
<path d="M359.134 268.166L335.794 272.066L343.154 379.716L376.984 382.446C376.984 382.446 384.334 341.056 384.754 334.336C385.174 327.616 372.754 277.196 372.754 277.196L359.134 268.166Z" fill="#2377B2" stroke="#263238" stroke-linecap="round" stroke-linejoin="round"/>
<path d="M393.625 436.946C394.392 434.294 394.773 431.546 394.755 428.786C394.485 424.786 393.425 418.676 393.425 418.676L383.845 419.476L387.555 436.946H393.625Z" fill="white" stroke="#263238" stroke-linecap="round" stroke-linejoin="round"/>
<path d="M290.905 436.946H387.785C387.525 434.816 386.785 429.446 386.015 424.056C384.965 417.126 377.825 368.586 377.825 368.586L306.625 361.856C306.625 361.856 290.025 394.006 287.715 403.456C285.405 412.906 290.625 435.176 290.625 435.176L290.905 436.946Z" fill="#263238" stroke="#263238" stroke-linecap="round" stroke-linejoin="round"/>
<path d="M384.754 195.046C384.754 195.046 390.214 193.786 392.524 202.396C394.834 211.006 392.104 215.396 393.154 219.626C394.204 223.856 396.464 233.696 393.724 243.566C390.984 253.436 381.184 260.566 380.724 264.166L380.304 267.736C380.304 267.736 378.834 269.206 374.214 268.786C369.594 268.366 363.914 265.006 363.914 265.006L364.544 257.866C364.544 257.866 372.544 257.866 374.424 256.396C376.304 254.926 384.504 240.396 385.134 236.226C385.764 232.056 386.184 220.046 385.554 216.476C384.924 212.906 380.554 205.546 378.834 204.916C377.114 204.286 369.374 198.826 369.374 198.826C369.374 198.826 380.134 192.316 384.754 195.046Z" fill="#263238" stroke="#263238" stroke-linecap="round" stroke-linejoin="round"/>
<path d="M390.005 285.386C390.005 285.386 396.735 288.536 396.945 293.786C397.155 299.036 393.365 322.356 393.365 324.046C393.365 325.736 391.475 360.596 391.475 360.596L395.545 421.326L385.975 421.866C385.975 421.866 377.625 376.946 378.455 371.526C379.285 366.106 384.335 339.166 384.755 334.336C385.175 329.506 384.125 308.916 385.595 302.826C387.065 296.736 390.005 285.386 390.005 285.386Z" fill="white" stroke="#263238" stroke-linecap="round" stroke-linejoin="round"/>
<path d="M375.625 199.626C375.625 199.626 386.005 203.866 387.685 211.226C389.365 218.586 386.845 227.816 387.685 233.706C388.525 239.596 380.125 254.296 377.185 257.866C374.245 261.436 367.095 260.176 367.095 260.176L368.175 271.946C368.175 271.946 372.575 286.646 371.935 290.426C371.295 294.206 364.365 299.756 355.555 299.246C344.625 298.616 341.255 288.446 341.255 288.446L342.725 265.126C343.092 260.321 342.955 255.492 342.315 250.716C341.265 242.106 343.575 229.076 344.415 226.976C345.255 224.876 353.035 216.266 357.865 212.906C362.695 209.546 372.145 199.906 372.145 199.906C372.145 199.906 374.925 198.736 375.625 199.626Z" fill="white" stroke="#263238" stroke-linecap="round" stroke-linejoin="round"/>
<path d="M342.304 269.536C342.304 269.536 309.964 272.536 305.304 275.716C300.644 278.896 307.404 346.306 307.404 346.306C307.404 346.306 281.404 403.456 282.194 403.876C282.984 404.296 295.424 414.586 308.664 416.876C321.904 419.166 341.224 420.876 341.224 420.876C341.224 420.876 348.154 364.146 348.994 359.736C349.834 355.326 347.104 311.626 347.524 305.536C347.944 299.446 342.304 269.536 342.304 269.536Z" fill="white" stroke="#263238" stroke-linecap="round" stroke-linejoin="round"/>
<path d="M343.234 337.886C344.188 340.13 345.284 342.311 346.514 344.416" stroke="#263238" stroke-linecap="round" stroke-linejoin="round"/>
<path d="M334.944 283.536C336.334 296.126 338.474 315.686 339.164 322.986C339.649 327.434 340.742 331.795 342.414 335.946" stroke="#263238" stroke-linecap="round" stroke-linejoin="round"/>
<path d="M333.694 272.276C333.694 272.276 334.024 275.276 334.524 279.786" stroke="#263238" stroke-linecap="round" stroke-linejoin="round"/>
<path d="M375.624 199.626C373.534 203.196 371.195 206.614 368.624 209.856C364.964 214.246 351.084 223.256 351.084 223.256C351.084 223.256 351.324 228.136 350.344 229.596C349.364 231.056 346.204 230.086 346.204 230.086C346.204 230.086 344.014 242.016 344.744 250.796C345.474 259.576 349.864 261.996 348.644 264.196C347.424 266.396 339.734 272.196 329.264 268.086C318.794 263.976 313.424 259.796 310.744 253.216C308.064 246.636 317.454 211.566 324.274 200.356C331.094 189.146 347.424 181.836 357.414 183.056C367.404 184.276 385.194 189.636 386.654 193.776C388.114 197.916 375.624 199.626 375.624 199.626Z" fill="#263238" stroke="#263238" stroke-linecap="round" stroke-linejoin="round"/>
<path d="M344.414 226.946C344.414 226.946 335.014 237.406 333.084 248.696C331.154 259.986 336.954 264.826 339.214 265.796" stroke="#5C5C5C" stroke-linecap="round" stroke-linejoin="round"/>
<path d="M316.674 247.156C316.42 249.311 316.625 251.495 317.274 253.566" stroke="#5C5C5C" stroke-linecap="round" stroke-linejoin="round"/>
<path d="M360.624 206.226C358.26 208.328 355.735 210.244 353.074 211.956C340.304 220.296 323.244 230.326 318.074 242.036" stroke="#5C5C5C" stroke-linecap="round" stroke-linejoin="round"/>
<path d="M367.624 193.886C367.624 193.886 368.704 197.266 363.864 202.956" stroke="#5C5C5C" stroke-linecap="round" stroke-linejoin="round"/>
<path d="M368.175 271.946C368.175 271.946 386.015 282.656 390.005 285.386C393.995 288.116 387.275 313.746 387.905 318.786C388.535 323.826 390.425 335.786 388.535 340.846C386.645 345.906 385.595 349.046 385.595 349.046L382.025 372.156C382.025 372.156 387.905 416.486 387.695 417.156C387.485 417.826 366.895 420.516 366.895 420.516C366.895 420.516 370.675 375.516 372.785 366.096C374.895 356.676 381.785 342.776 380.135 327.236C378.485 311.696 368.175 271.946 368.175 271.946Z" fill="white" stroke="#263238" stroke-linecap="round" stroke-linejoin="round"/>
<path d="M384.365 327.216C384.102 332.276 382.881 337.241 380.765 341.846" stroke="#263238" stroke-linecap="round" stroke-linejoin="round"/>
<path d="M378.624 280.546C378.624 280.546 384.184 310.606 384.464 322.466" stroke="#263238" stroke-linecap="round" stroke-linejoin="round"/>
<path d="M386.624 313.746C386.624 313.746 385.344 303.256 383.624 297.746" stroke="#263238" stroke-linecap="round" stroke-linejoin="round"/>
<path d="M370.624 228.636C370.624 230.296 369.824 231.636 368.824 231.636C367.824 231.636 367.024 230.286 367.024 228.636C367.024 226.986 367.824 225.636 368.824 225.636C369.824 225.636 370.624 226.946 370.624 228.636Z" fill="#263238"/>
<path d="M385.915 228.636C385.915 230.296 385.115 231.636 384.115 231.636C383.115 231.636 382.305 230.286 382.305 228.636C382.305 226.986 383.115 225.636 384.115 225.636C385.115 225.636 385.915 226.946 385.915 228.636Z" fill="#263238"/>
<path d="M363.364 222.946C364.854 221.963 366.542 221.32 368.308 221.061C370.074 220.802 371.875 220.933 373.584 221.446" stroke="#263238" stroke-linecap="round" stroke-linejoin="round"/>
<path d="M386.214 222.946C385.702 222.357 384.994 221.972 384.221 221.862C383.448 221.751 382.661 221.923 382.004 222.346C382.004 222.346 379.304 225.956 379.904 228.346" stroke="#263238" stroke-linecap="round" stroke-linejoin="round"/>
<path d="M380.204 242.776L374.484 243.676" stroke="#263238" stroke-linecap="round" stroke-linejoin="round"/>
<path d="M376.625 247.586C376.625 247.586 368.205 249.986 363.095 243.676" stroke="#263238" stroke-linecap="round" stroke-linejoin="round"/>
<path d="M367.105 260.176L358.845 257.506L366.065 266.236L367.105 260.176Z" fill="#263238" stroke="#263238" stroke-linecap="round" stroke-linejoin="round"/>
<path d="M516.484 271.706C514.512 274.75 513.071 278.108 512.224 281.636C511.044 287.066 509.864 293.216 509.864 293.216C509.864 293.216 515.774 288.486 516.484 288.216C517.194 287.946 516.014 282.076 516.014 282.076L520.014 278.766L516.484 271.706Z" fill="#263238" stroke="#263238" stroke-linecap="round" stroke-linejoin="round"/>
<path d="M518.845 192.056C518.845 192.056 512.935 194.186 510.575 198.436C508.215 202.686 502.065 212.616 503.015 215.926C503.965 219.236 504.425 220.656 504.425 220.656C504.425 220.656 495.925 235.546 496.865 236.966C498.016 238.398 499.28 239.736 500.645 240.966C500.645 240.966 504.425 258.686 506.085 259.866C507.745 261.046 512.465 261.756 512.465 261.756L519.315 270.266L556.895 254.946L557.375 246.676C557.375 246.676 570.135 230.126 571.785 220.676C573.435 211.226 561.385 194.916 548.385 188.536C535.385 182.156 521.685 185.676 518.845 192.056Z" fill="white" stroke="#263238" stroke-linecap="round" stroke-linejoin="round"/>
<path d="M506.624 225.746C508.246 227.085 510.246 227.886 512.344 228.036" stroke="#263238" stroke-linecap="round" stroke-linejoin="round"/>
<path d="M548.385 188.516C535.385 182.136 521.685 185.676 518.845 192.056C518.845 192.056 520.025 193.006 523.845 192.766C527.665 192.526 536.615 188.766 538.975 192.056C541.335 195.346 531.885 198.206 528.345 203.166C524.805 208.126 525.745 208.366 528.575 212.166C531.405 215.966 531.885 217.606 531.415 219.256C530.945 220.906 530.235 222.326 533.305 222.806C536.375 223.286 537.305 215.716 542.045 218.076C546.785 220.436 547.485 227.526 545.825 232.256C545.419 233.578 544.75 234.804 543.858 235.861C542.966 236.918 541.87 237.783 540.635 238.406C540.635 238.406 541.335 241.476 546.535 244.076C549.944 245.682 553.648 246.567 557.415 246.676C557.415 246.676 570.175 230.126 571.825 220.676C573.475 211.226 561.385 194.946 548.385 188.516Z" fill="#263238" stroke="#263238" stroke-linecap="round" stroke-linejoin="round"/>
<path d="M557.374 230.856C558.148 232.825 558.449 234.949 558.254 237.056" stroke="#5C5C5C" stroke-linecap="round" stroke-linejoin="round"/>
<path d="M530.494 206.296C530.494 206.296 532.164 209.636 541.494 213.646C546.754 215.906 551.704 220.706 554.854 225.776" stroke="#5C5C5C" stroke-linecap="round" stroke-linejoin="round"/>
<path d="M556.244 216.326C556.244 216.326 564.604 221.326 563.244 231.036" stroke="#5C5C5C" stroke-linecap="round" stroke-linejoin="round"/>
<path d="M510.625 221.246C510.625 222.876 509.935 224.246 509.085 224.246C508.235 224.246 507.555 222.916 507.555 221.246C507.555 219.576 508.235 218.246 509.085 218.246C509.935 218.246 510.625 219.616 510.625 221.246Z" fill="#263238"/>
<path d="M505.624 214.746C505.624 214.746 509.874 209.746 513.624 214.986" stroke="#263238" stroke-linecap="round" stroke-linejoin="round"/>
<path d="M503.954 241.686C503.954 241.686 509.624 241.216 513.174 237.686" stroke="#263238" stroke-linecap="round" stroke-linejoin="round"/>
<path d="M540.625 238.386L538.025 239.086C536.867 242.556 534.923 245.711 532.345 248.306" fill="white"/>
<path d="M540.625 238.386L538.025 239.086C536.867 242.556 534.923 245.711 532.345 248.306" stroke="#263238" stroke-linecap="round" stroke-linejoin="round"/>
<path d="M557.625 251.376C557.625 251.376 520.755 266.746 519.105 268.636C517.455 270.526 516.505 271.706 516.505 271.706L519.335 286.836L562.335 258.466L557.625 251.376Z" fill="white" stroke="#263238" stroke-linecap="round" stroke-linejoin="round"/>
<path d="M450.394 355.526L452.444 370.576L442.864 372.856C440.227 374.634 437.475 376.235 434.624 377.646C430.754 379.466 428.014 380.146 426.624 380.146C425.234 380.146 420.244 378.096 420.244 378.096C420.244 378.096 423.664 359.626 427.544 357.576C431.424 355.526 441.724 352.556 450.394 355.526Z" fill="white" stroke="#263238" stroke-linecap="round" stroke-linejoin="round"/>
<path d="M402.164 361.836C402.164 361.836 420.164 359.166 422.164 358.886C424.164 358.606 429.404 362.976 429.404 362.976C429.404 362.976 439.574 375.576 438.994 376.496C437.534 378.806 435.944 377.496 435.944 377.496L435.824 378.996C435.824 378.996 434.714 380.856 427.754 380.876C420.794 380.896 418.304 379.186 416.594 379.046C414.884 378.906 401.404 375.466 401.404 375.466L402.164 361.836Z" fill="white" stroke="#263238" stroke-linecap="round" stroke-linejoin="round"/>
<path d="M396.124 360.496L402.734 361.686L402.004 376.586L395.994 376.196L396.124 360.496Z" fill="white" stroke="#263238" stroke-linecap="round" stroke-linejoin="round"/>
<path d="M322.834 274.776C322.834 274.776 304.034 273.466 300.094 276.526C296.154 279.586 298.094 320.036 301.414 334.686C304.734 349.336 309.284 372.736 311.414 373.826C313.544 374.916 396.994 378.296 396.994 378.296L397.874 360.146L333.504 346.276L328.914 288.996" fill="white"/>
<path d="M322.834 274.776C322.834 274.776 304.034 273.466 300.094 276.526C296.154 279.586 298.094 320.036 301.414 334.686C304.734 349.336 309.284 372.736 311.414 373.826C313.544 374.916 396.994 378.296 396.994 378.296L397.874 360.146L333.504 346.276L328.914 288.996" stroke="#263238" stroke-linecap="round" stroke-linejoin="round"/>
<path d="M435.995 377.496L433.095 373.416" stroke="#263238" stroke-linecap="round" stroke-linejoin="round"/>
<path d="M433.994 379.856L430.484 375.386" stroke="#263238" stroke-linecap="round" stroke-linejoin="round"/>
<path d="M445.625 356.946C445.625 356.946 428.525 351.696 425.105 355.346C421.685 358.996 414.385 368.576 415.985 369.716C417.585 370.856 423.275 366.516 424.645 365.606C425.651 364.877 426.571 364.035 427.385 363.096C428.973 364.666 430.948 365.789 433.11 366.351C435.271 366.913 437.543 366.894 439.695 366.296" fill="white"/>
<path d="M445.625 356.946C445.625 356.946 428.525 351.696 425.105 355.346C421.685 358.996 414.385 368.576 415.985 369.716C417.585 370.856 423.275 366.516 424.645 365.606C425.651 364.877 426.571 364.035 427.385 363.096C428.973 364.666 430.948 365.789 433.11 366.351C435.271 366.913 437.543 366.894 439.695 366.296" stroke="#263238" stroke-linecap="round" stroke-linejoin="round"/>
<path d="M426.795 374.946C426.795 374.946 425.175 380.816 425.795 381.806C426.044 382.223 426.424 382.547 426.876 382.728C427.327 382.909 427.826 382.936 428.295 382.806C428.85 382.57 429.356 382.23 429.785 381.806C429.785 381.806 430.035 376.806 429.285 375.576C428.535 374.346 427.915 373.486 426.795 374.946Z" fill="white" stroke="#263238" stroke-linecap="round" stroke-linejoin="round"/>
<path d="M422.425 375.726C422.425 375.726 420.805 381.586 421.425 382.586C421.671 383.004 422.049 383.328 422.5 383.509C422.95 383.69 423.447 383.717 423.915 383.586C424.474 383.352 424.983 383.012 425.415 382.586C425.415 382.586 425.665 377.586 424.915 376.356C424.165 375.126 423.555 374.236 422.425 375.726Z" fill="white" stroke="#263238" stroke-linecap="round" stroke-linejoin="round"/>
<path d="M418.035 375.946C418.035 375.946 416.795 380.446 417.275 381.206C417.464 381.527 417.753 381.776 418.099 381.915C418.444 382.054 418.826 382.076 419.185 381.976C419.615 381.798 420.006 381.536 420.335 381.206C420.335 381.206 420.524 377.386 419.954 376.426C419.384 375.466 418.895 374.796 418.035 375.946Z" fill="white" stroke="#263238" stroke-linecap="round" stroke-linejoin="round"/>
<path d="M412.864 376.126C412.864 376.126 411.864 379.126 412.264 379.616C412.439 379.835 412.674 379.999 412.94 380.088C413.206 380.177 413.493 380.186 413.764 380.116C414.094 380.003 414.402 379.834 414.674 379.616C414.674 379.616 414.824 377.076 414.374 376.446C413.924 375.816 413.544 375.366 412.864 376.126Z" fill="white" stroke="#263238" stroke-linecap="round" stroke-linejoin="round"/>
<path d="M449.024 353.926L451.304 375.136L458.824 373.766L456.094 352.556L449.024 353.926Z" fill="white" stroke="#263238" stroke-linecap="round" stroke-linejoin="round"/>
<path d="M453.814 351.196L458.374 378.096L489.604 373.996L493.024 343.436L453.814 351.196Z" fill="#2377B2" stroke="#263238" stroke-linecap="round" stroke-linejoin="round"/>
<path d="M478.334 375.476L489.604 373.996L493.024 343.436L484.794 345.066L478.334 375.476Z" fill="#263238" stroke="#263238" stroke-linecap="round" stroke-linejoin="round"/>
<path d="M572.624 436.946L570.074 387.946C570.074 387.946 580.794 340.946 578.514 314.946C576.234 288.946 558.674 261.826 558.674 261.826C558.674 261.826 517.404 287.586 513.074 292.146C508.744 296.706 501.004 304.446 498.724 311.746C496.444 319.046 487.554 363.946 487.554 363.946C487.554 363.946 478.204 395.416 475.244 414.346C473.444 425.856 473.664 433.046 474.114 436.926L572.624 436.946Z" fill="#2377B2" stroke="#263238" stroke-linecap="round" stroke-linejoin="round"/>
<path d="M557.124 270.396C559.952 269.249 562.716 267.95 565.404 266.506" stroke="#263238" stroke-linecap="round" stroke-linejoin="round"/>
<path d="M501.005 322.156C504.565 315.716 509.005 308.066 511.005 305.736C514.785 301.486 543.145 276.436 553.545 271.946" stroke="#263238" stroke-linecap="round" stroke-linejoin="round"/>
<path d="M495.685 331.946C495.685 331.946 497.375 328.746 499.685 324.546" stroke="#263238" stroke-linecap="round" stroke-linejoin="round"/>
<path d="M521.905 334.406C521.905 349.066 519.905 363.576 520.905 378.086C515.725 396.746 506.395 413.326 499.685 430.836" stroke="#263238" stroke-linecap="round" stroke-linejoin="round"/>
<path d="M525.704 304.326C525.704 304.326 521.444 310.706 521.914 322.516C521.974 323.966 521.994 325.946 521.984 328.296" stroke="#263238" stroke-linecap="round" stroke-linejoin="round"/>
<path d="M566.824 310.946C566.824 310.946 557.374 383.746 556.424 389.656C555.744 393.886 541.254 417.026 533.074 429.816" stroke="#263238" stroke-linecap="round" stroke-linejoin="round"/>
<path d="M504.364 416.286L485.034 412.926L486.294 407.036L505.204 410.406" stroke="#263238" stroke-linecap="round" stroke-linejoin="round"/>
</svg>
